<?xml version="1.0" standalone="no"?><!DOCTYPE svg PUBLIC "-//W3C//DTD SVG 1.1//EN" "http://www.w3.org/Graphics/SVG/1.1/DTD/svg11.dtd"><svg t="1549006029317" class="icon" style="" viewBox="0 0 1024 1024" version="1.1" xmlns="http://www.w3.org/2000/svg" p-id="43020" xmlns:xlink="http://www.w3.org/1999/xlink" width="200" height="200"><defs><style type="text/css"></style></defs><path d="M950.848 182.848v621.696a36.544 36.544 0 0 1-36.544 36.608H352.896c-15.424 0-30.464 4.864-42.944 13.888l-72.256 52.416a57.6 57.6 0 0 1-91.392-46.72V182.912c0-20.16 16.384-36.544 36.544-36.544h731.456c20.16 0 36.544 16.384 36.544 36.544zM267.008 795.84c24.96-18.112 55.04-27.84 85.888-27.84h524.8V219.456H219.52v610.88l47.552-34.496z m135.296-430.08h292.544a36.544 36.544 0 0 1 0 73.088H402.304a36.544 36.544 0 1 1 0-73.152z m0 182.784h182.848a36.544 36.544 0 1 1 0 73.152H402.304a36.544 36.544 0 1 1 0-73.152z" p-id="43021" fill="#ffffff"></path></svg>